<svg width="18" height="18" viewBox="0 0 18 18" fill="none" xmlns="http://www.w3.org/2000/svg">
<path d="M17.6309 16.225H0.369141C0.165234 16.225 0 16.0598 0 15.8559V3.58984C0 3.38594 0.165234 3.2207 0.369141 3.2207H17.6273C17.8312 3.2207 17.9965 3.38594 17.9965 3.58984V15.8559C18 16.0598 17.8348 16.225 17.6309 16.225ZM0.741797 15.4832H17.2582V3.9625H0.741797V15.4832Z" fill="#8A00FE"/>
<path d="M17.6273 6.75H0.369141V7.4918H17.6273V6.75Z" fill="#8A00FE"/>
<path d="M3.80469 5.40703C3.60078 5.40703 3.43555 5.2418 3.43555 5.03789V2.14453C3.43555 1.94062 3.60078 1.77539 3.80469 1.77539C4.0086 1.77539 4.17383 1.94062 4.17383 2.14453V5.03437C4.17735 5.2418 4.0086 5.40703 3.80469 5.40703Z" fill="#8A00FE"/>
<path d="M9 5.40703C8.79609 5.40703 8.63086 5.2418 8.63086 5.03789V2.14453C8.63086 1.94062 8.79609 1.77539 9 1.77539C9.20391 1.77539 9.36914 1.94062 9.36914 2.14453V5.03437C9.36914 5.2418 9.20391 5.40703 9 5.40703Z" fill="#8A00FE"/>
<path d="M14.1953 5.40703C13.9914 5.40703 13.8262 5.2418 13.8262 5.03789V2.14453C13.8262 1.94062 13.9914 1.77539 14.1953 1.77539C14.3992 1.77539 14.5645 1.94062 14.5645 2.14453V5.03437C14.5645 5.2418 14.3992 5.40703 14.1953 5.40703Z" fill="#8A00FE"/>
</svg>
