<svg width="17" height="17" viewBox="0 0 17 17" fill="none" xmlns="http://www.w3.org/2000/svg">
<path d="M14.5924 0.287109H3.05214C1.82283 0.287109 0.822266 1.35065 0.822266 2.65856V9.95704C0.822266 11.2644 1.82283 12.328 3.05214 12.328H9.85756L14.7684 16.2871V12.3211C15.9159 12.225 16.8223 11.2014 16.8223 9.95704V2.65856C16.8223 1.35065 15.8217 0.287109 14.5924 0.287109ZM15.8683 9.95704C15.8683 10.6595 15.2957 11.231 14.5923 11.231H13.8145V14.1782L10.1586 11.231H3.0521C2.34858 11.231 1.7761 10.6595 1.7761 9.95704V2.65856C1.7761 1.95558 2.34858 1.38417 3.0521 1.38417H14.5923C15.2957 1.38417 15.8683 1.95563 15.8683 2.65856V9.95704Z" fill="#8A00FE"/>
</svg>
