<svg width="18" height="18" viewBox="0 0 18 18" fill="none" xmlns="http://www.w3.org/2000/svg">
<path d="M8.99805 0.564453C6.51943 0.564453 4.50135 2.58256 4.50135 5.06116C4.50135 6.62316 5.30416 8.0031 6.51734 8.81079C3.07185 9.87278 0.560547 13.0849 0.560551 16.8748C0.560268 16.949 0.574681 17.0226 0.602959 17.0912C0.631238 17.1598 0.672822 17.2222 0.725316 17.2747C0.777809 17.3272 0.840173 17.3688 0.908813 17.397C0.977453 17.4253 1.05101 17.4397 1.12525 17.4395H16.8752C17.0244 17.4389 17.1673 17.379 17.2723 17.2731C17.3774 17.1672 17.4361 17.0239 17.4355 16.8748C17.4356 13.0853 14.9259 9.87311 11.481 8.81079C12.6953 8.0031 13.4991 6.62313 13.4991 5.06116C13.4991 2.58256 11.4767 0.564453 8.99805 0.564453ZM8.99805 1.68506C10.8687 1.68506 12.3741 3.19055 12.3741 5.06116C12.3741 6.93179 10.8687 8.43726 8.99805 8.43726C7.12743 8.43726 5.62635 6.93179 5.62635 5.06116C5.62635 3.19055 7.12743 1.68506 8.99805 1.68506ZM8.99805 9.56226C12.8444 9.56226 15.9031 12.5466 16.2029 16.3145H1.79871C2.09851 12.5466 5.15172 9.56226 8.99805 9.56226Z" fill="#8A00FE"/>
</svg>
