<svg width="64" height="64" viewBox="0 0 64 64" fill="none" xmlns="http://www.w3.org/2000/svg">
<path d="M60 30C59.5832 29.9973 59.1777 29.8645 58.84 29.62L32 10.46L5.16003 29.62C4.72944 29.875 4.21888 29.9594 3.72915 29.8563C3.23942 29.7533 2.80611 29.4704 2.51475 29.0635C2.22339 28.6567 2.09517 28.1553 2.15539 27.6585C2.21561 27.1617 2.4599 26.7055 2.84003 26.38L30.84 6.38001C31.1788 6.13885 31.5842 6.00925 32 6.00925C32.4158 6.00925 32.8213 6.13885 33.16 6.38001L61.16 26.38C61.5015 26.6272 61.7561 26.976 61.8876 27.3765C62.019 27.7771 62.0205 28.2089 61.8918 28.6104C61.7632 29.0118 61.511 29.3624 61.1712 29.6119C60.8315 29.8615 60.4216 29.9973 60 30Z" fill="#8A00FE"/>
<path d="M10 18C9.46957 18 8.96086 17.7893 8.58579 17.4142C8.21071 17.0391 8 16.5304 8 16V8C8 7.46957 8.21071 6.96086 8.58579 6.58579C8.96086 6.21071 9.46957 6 10 6H18C18.5304 6 19.0391 6.21071 19.4142 6.58579C19.7893 6.96086 20 7.46957 20 8C20 8.53043 19.7893 9.03914 19.4142 9.41421C19.0391 9.78929 18.5304 10 18 10H12V16C12 16.5304 11.7893 17.0391 11.4142 17.4142C11.0391 17.7893 10.5304 18 10 18Z" fill="#8A00FE"/>
<path d="M50 58H40C39.4696 58 38.9609 57.7893 38.5858 57.4142C38.2107 57.0391 38 56.5304 38 56V42H26V56C26 56.5304 25.7893 57.0391 25.4142 57.4142C25.0391 57.7893 24.5304 58 24 58H14C12.4087 58 10.8826 57.3679 9.75736 56.2426C8.63214 55.1174 8 53.5913 8 52V32C8 31.4696 8.21071 30.9609 8.58579 30.5858C8.96086 30.2107 9.46957 30 10 30C10.5304 30 11.0391 30.2107 11.4142 30.5858C11.7893 30.9609 12 31.4696 12 32V52C12 52.5304 12.2107 53.0391 12.5858 53.4142C12.9609 53.7893 13.4696 54 14 54H22V40C22 39.4696 22.2107 38.9609 22.5858 38.5858C22.9609 38.2107 23.4696 38 24 38H40C40.5304 38 41.0391 38.2107 41.4142 38.5858C41.7893 38.9609 42 39.4696 42 40V54H50C50.5304 54 51.0391 53.7893 51.4142 53.4142C51.7893 53.0391 52 52.5304 52 52V32C52 31.4696 52.2107 30.9609 52.5858 30.5858C52.9609 30.2107 53.4696 30 54 30C54.5304 30 55.0391 30.2107 55.4142 30.5858C55.7893 30.9609 56 31.4696 56 32V52C56 53.5913 55.3679 55.1174 54.2426 56.2426C53.1174 57.3679 51.5913 58 50 58V58Z" fill="#8A00FE"/>
</svg>
