<svg width="21" height="20" viewBox="0 0 21 20" fill="none" xmlns="http://www.w3.org/2000/svg">
<g clip-path="url(#clip0)">
<path d="M19.6129 9.05145C19.4767 9.05064 19.3441 9.01056 19.2337 8.9368L10.4604 3.15587L1.68709 8.9368C1.54634 9.01375 1.37945 9.03919 1.21937 9.0081C1.05929 8.97702 0.917649 8.89167 0.822413 8.7689C0.727176 8.64614 0.685263 8.49487 0.704948 8.34498C0.724632 8.19508 0.804484 8.05744 0.92874 7.95923L10.0812 1.92486C10.192 1.85209 10.3245 1.81299 10.4604 1.81299C10.5963 1.81299 10.7289 1.85209 10.8396 1.92486L19.9921 7.95923C20.1037 8.03382 20.1869 8.13905 20.2299 8.2599C20.2729 8.38075 20.2733 8.51105 20.2313 8.63217C20.1892 8.7533 20.1068 8.85906 19.9958 8.93436C19.8847 9.00966 19.7507 9.05064 19.6129 9.05145Z" fill="#8A00FE"/>
<path d="M3.26898 5.43117C3.0956 5.43117 2.92932 5.3676 2.80671 5.25443C2.68411 5.14126 2.61523 4.98778 2.61523 4.82773V2.41398C2.61523 2.25394 2.68411 2.10046 2.80671 1.98729C2.92932 1.87412 3.0956 1.81055 3.26898 1.81055H5.88398C6.05737 1.81055 6.22365 1.87412 6.34626 1.98729C6.46886 2.10046 6.53773 2.25394 6.53773 2.41398C6.53773 2.57403 6.46886 2.72751 6.34626 2.84068C6.22365 2.95385 6.05737 3.01742 5.88398 3.01742H3.92273V4.82773C3.92273 4.98778 3.85386 5.14126 3.73126 5.25443C3.60865 5.3676 3.44237 5.43117 3.26898 5.43117Z" fill="#8A00FE"/>
<path d="M16.344 17.4999H13.0752C12.9018 17.4999 12.7356 17.4363 12.613 17.3231C12.4904 17.21 12.4215 17.0565 12.4215 16.8964V12.6724H8.49898V16.8964C8.49898 17.0565 8.43011 17.21 8.30751 17.3231C8.1849 17.4363 8.01862 17.4999 7.84523 17.4999H4.57648C4.05633 17.4999 3.55748 17.3092 3.18967 16.9697C2.82187 16.6302 2.61523 16.1697 2.61523 15.6896V9.6552C2.61523 9.49515 2.68411 9.34167 2.80671 9.2285C2.92932 9.11533 3.0956 9.05176 3.26898 9.05176C3.44237 9.05176 3.60865 9.11533 3.73126 9.2285C3.85386 9.34167 3.92273 9.49515 3.92273 9.6552V15.6896C3.92273 15.8496 3.99161 16.0031 4.11421 16.1163C4.23682 16.2294 4.4031 16.293 4.57648 16.293H7.19148V12.0689C7.19148 11.9089 7.26036 11.7554 7.38296 11.6423C7.50557 11.5291 7.67185 11.4655 7.84523 11.4655H13.0752C13.2486 11.4655 13.4149 11.5291 13.5375 11.6423C13.6601 11.7554 13.729 11.9089 13.729 12.0689V16.293H16.344C16.5174 16.293 16.6837 16.2294 16.8063 16.1163C16.9289 16.0031 16.9977 15.8496 16.9977 15.6896V9.6552C16.9977 9.49515 17.0666 9.34167 17.1892 9.2285C17.3118 9.11533 17.4781 9.05176 17.6515 9.05176C17.8249 9.05176 17.9912 9.11533 18.1138 9.2285C18.2364 9.34167 18.3052 9.49515 18.3052 9.6552V15.6896C18.3052 16.1697 18.0986 16.6302 17.7308 16.9697C17.363 17.3092 16.8641 17.4999 16.344 17.4999V17.4999Z" fill="#8A00FE"/>
</g>
<defs>
<clipPath id="clip0">
<rect width="20.92" height="19.31" fill="white"/>
</clipPath>
</defs>
</svg>
