<svg width="16" height="20" viewBox="0 0 16 20" fill="none" xmlns="http://www.w3.org/2000/svg">
<path d="M15 9.37504C14.8957 9.3742 14.7944 9.33269 14.71 9.25629L7.99995 3.26879L1.28995 9.25629C1.1823 9.33599 1.05466 9.36234 0.93223 9.33015C0.809797 9.29795 0.701469 9.20955 0.62863 9.0824C0.555791 8.95525 0.523736 8.79858 0.538791 8.64332C0.553846 8.48807 0.614918 8.34551 0.709951 8.24379L7.70995 1.99379C7.79463 1.91843 7.896 1.87793 7.99995 1.87793C8.1039 1.87793 8.20527 1.91843 8.28995 1.99379L15.29 8.24379C15.3753 8.32104 15.439 8.43004 15.4718 8.55521C15.5047 8.68038 15.5051 8.81533 15.4729 8.94078C15.4407 9.06623 15.3777 9.17578 15.2928 9.25376C15.2078 9.33175 15.1053 9.3742 15 9.37504Z" fill="#8A00FE"/>
<path d="M2.5 5.625C2.36739 5.625 2.24021 5.55915 2.14645 5.44194C2.05268 5.32473 2 5.16576 2 5V2.5C2 2.33424 2.05268 2.17527 2.14645 2.05806C2.24021 1.94085 2.36739 1.875 2.5 1.875H4.5C4.63261 1.875 4.75979 1.94085 4.85355 2.05806C4.94732 2.17527 5 2.33424 5 2.5C5 2.66576 4.94732 2.82473 4.85355 2.94194C4.75979 3.05915 4.63261 3.125 4.5 3.125H3V5C3 5.16576 2.94732 5.32473 2.85355 5.44194C2.75979 5.55915 2.63261 5.625 2.5 5.625Z" fill="#8A00FE"/>
<path d="M12.5 18.125H10C9.86739 18.125 9.74021 18.0592 9.64645 17.9419C9.55268 17.8247 9.5 17.6658 9.5 17.5V13.125H6.5V17.5C6.5 17.6658 6.44732 17.8247 6.35355 17.9419C6.25979 18.0592 6.13261 18.125 6 18.125H3.5C3.10218 18.125 2.72064 17.9275 2.43934 17.5758C2.15804 17.2242 2 16.7473 2 16.25V10C2 9.83424 2.05268 9.67527 2.14645 9.55806C2.24021 9.44085 2.36739 9.375 2.5 9.375C2.63261 9.375 2.75979 9.44085 2.85355 9.55806C2.94732 9.67527 3 9.83424 3 10V16.25C3 16.4158 3.05268 16.5747 3.14645 16.6919C3.24021 16.8092 3.36739 16.875 3.5 16.875H5.5V12.5C5.5 12.3342 5.55268 12.1753 5.64645 12.0581C5.74021 11.9408 5.86739 11.875 6 11.875H10C10.1326 11.875 10.2598 11.9408 10.3536 12.0581C10.4473 12.1753 10.5 12.3342 10.5 12.5V16.875H12.5C12.6326 16.875 12.7598 16.8092 12.8536 16.6919C12.9473 16.5747 13 16.4158 13 16.25V10C13 9.83424 13.0527 9.67527 13.1464 9.55806C13.2402 9.44085 13.3674 9.375 13.5 9.375C13.6326 9.375 13.7598 9.44085 13.8536 9.55806C13.9473 9.67527 14 9.83424 14 10V16.25C14 16.7473 13.842 17.2242 13.5607 17.5758C13.2794 17.9275 12.8978 18.125 12.5 18.125V18.125Z" fill="#8A00FE"/>
</svg>
