<svg width="19" height="19" viewBox="0 0 19 19" fill="none" xmlns="http://www.w3.org/2000/svg">
<path d="M16.5213 18.8008H1.67789C0.81359 18.8008 0.0996094 17.8664 0.0996094 16.7352V2.86635C0.0996094 1.73521 0.81359 0.800781 1.67789 0.800781H16.5213C17.3856 0.800781 18.0996 1.73521 18.0996 2.86635V16.7352C18.0996 17.8664 17.3856 18.8008 16.5213 18.8008ZM1.64032 2.12865C1.3397 2.12865 1.11422 2.42373 1.11422 2.81717V16.686C1.11422 17.0795 1.3397 17.3746 1.64032 17.3746H16.4837C16.7844 17.3746 17.0098 17.0795 17.0098 16.686V2.81717C17.0098 2.42373 16.7844 2.12865 16.4837 2.12865H1.64032Z" fill="#8A00FE"/>
<path d="M11.7484 9.01335C10.5835 9.01335 9.68164 7.78384 9.68164 6.30843C9.68164 4.83302 10.6211 3.60352 11.7484 3.60352C12.8758 3.60352 13.8153 4.83302 13.8153 6.30843C13.8153 7.78384 12.8758 9.01335 11.7484 9.01335ZM11.7484 4.83302C11.1472 4.83302 10.6587 5.47237 10.6587 6.25925C10.6587 7.04614 11.1472 7.68549 11.7484 7.68549C12.3497 7.68549 12.8382 7.04614 12.8382 6.25925C12.8382 5.47237 12.3497 4.83302 11.7484 4.83302Z" fill="#8A00FE"/>
<path d="M14.5673 18.5559L5.88674 7.88377L0.926405 13.8838L0.25 12.9493L5.88674 6.11328L15.2437 17.6215L14.5673 18.5559Z" fill="#8A00FE"/>
<path d="M17.2733 15.0143L14.3798 11.9651L11.9748 14.5717L11.3359 13.5389L14.3798 10.293L17.8746 14.0307L17.2733 15.0143Z" fill="#8A00FE"/>
</svg>
