<svg width="16" height="16" viewBox="0 0 16 16" fill="none" xmlns="http://www.w3.org/2000/svg">
<path d="M8.00039 13.2254L7.80039 13.0504C3.25039 9.35039 2.02539 8.05039 2.02539 5.92539C2.02539 4.17539 3.45039 2.77539 5.17539 2.77539C6.62539 2.77539 7.45039 3.60039 8.00039 4.22539C8.55039 3.60039 9.37539 2.77539 10.8254 2.77539C12.5754 2.77539 13.9754 4.20039 13.9754 5.92539C13.9754 8.05039 12.7504 9.35039 8.20039 13.0504L8.00039 13.2254ZM5.17539 3.42539C3.80039 3.42539 2.67539 4.55039 2.67539 5.92539C2.67539 7.75039 3.82539 8.95039 8.00039 12.3754C12.1754 8.95039 13.3254 7.75039 13.3254 5.92539C13.3254 4.55039 12.2004 3.42539 10.8254 3.42539C9.57539 3.42539 8.90039 4.17539 8.37539 4.77539L8.00039 5.20039L7.62539 4.77539C7.10039 4.17539 6.42539 3.42539 5.17539 3.42539Z" fill="#8A00FE"/>
</svg>
