<svg width="16" height="18" viewBox="0 0 16 18" fill="none" xmlns="http://www.w3.org/2000/svg">
<path d="M6.26652 8.03481L1.64829 12.6533C1.06256 13.2385 0.740234 14.017 0.740234 14.8452C0.740234 15.6738 1.06294 16.4521 1.64841 17.0374C2.23376 17.6226 3.0124 17.9452 3.84031 17.9454H3.84056C4.66861 17.9454 5.44686 17.6228 6.03221 17.0374L10.6507 12.4187C11.6012 11.4683 11.8268 10.0243 11.2315 8.83885L10.2175 9.85295C10.3435 10.4457 10.1612 11.0681 9.73096 11.4985L4.99639 16.2327L4.99309 16.2298C4.65629 16.5239 4.23096 16.6843 3.78316 16.6843C3.30462 16.6843 2.85669 16.4998 2.52116 16.1646C2.18067 15.8242 1.99665 15.3697 2.00135 14.8847C2.00592 14.4432 2.16657 14.0245 2.45652 13.6922L2.45385 13.6896L2.51875 13.6242C2.52726 13.6152 2.53615 13.6059 2.54491 13.5974C2.54758 13.5948 2.55037 13.5918 2.55304 13.5895L2.56866 13.5737L7.18689 8.95518C7.52675 8.61571 7.97811 8.42889 8.45791 8.42889C8.58199 8.42889 8.70518 8.44172 8.82609 8.46674L9.8412 7.45137C9.41448 7.23852 8.93988 7.12701 8.45829 7.12701C7.63051 7.12714 6.85199 7.44959 6.26652 8.03481ZM15.2317 3.09018C15.2317 2.26214 14.909 1.48363 14.3237 0.898413C13.7382 0.312561 12.9597 -0.00976562 12.1315 -0.00976562C11.3036 -0.00976562 10.5252 0.312688 9.93988 0.898413L5.32126 5.51652C4.37143 6.46623 4.14524 7.90921 4.73896 9.09412L5.71001 8.12308C5.59863 7.56834 5.75547 6.98465 6.13101 6.55386L6.12835 6.55107L6.1921 6.48668C6.20023 6.47817 6.20912 6.46915 6.21763 6.46052C6.2203 6.45798 6.22271 6.45544 6.2255 6.4529L6.2415 6.43677L10.8596 1.81853C11.1993 1.4788 11.651 1.29186 12.1314 1.29186C12.612 1.29186 13.0635 1.4788 13.4032 1.81853C14.1045 2.5197 14.1045 3.6613 13.4032 4.36196L8.6695 9.09628L8.66619 9.09298C8.32888 9.38724 7.90432 9.54777 7.45639 9.54777C7.33561 9.54777 7.21623 9.53583 7.09901 9.51246L6.12809 10.4834C6.55596 10.6969 7.03068 10.8089 7.51328 10.8089C8.34171 10.8089 9.12009 10.4864 9.70544 9.90108L14.3238 5.28272C14.9093 4.69686 15.2317 3.91848 15.2317 3.09018Z" fill="#8A00FE"/>
</svg>
