<svg width="18" height="22" viewBox="0 0 18 22" fill="none" xmlns="http://www.w3.org/2000/svg">
<path d="M9 22L8.51786 21.4884C8.19643 21.1163 0 12.7907 0 7.81396C0 3.48838 4.07143 0 9 0C13.9286 0 18 3.53489 18 7.81396C18 12.7907 9.80357 21.1628 9.48214 21.4884L9 22ZM9 1.06978C4.71429 1.06978 1.28572 4.09303 1.28572 7.76744C1.28572 11.6744 7.23214 18.3256 9 20.2326C10.7679 18.3256 16.7143 11.7209 16.7143 7.76744C16.7143 4.09303 13.2857 1.06978 9 1.06978Z" fill="#8A00FE"/>
<path d="M8.99693 10.7875C7.12193 10.7875 5.56836 9.43864 5.56836 7.81074C5.56836 6.18283 7.12193 4.83398 8.99693 4.83398C10.8719 4.83398 12.4255 6.18283 12.4255 7.81074C12.4255 9.43864 10.8719 10.7875 8.99693 10.7875ZM8.99693 5.95027C7.81836 5.95027 6.85407 6.78748 6.85407 7.81074C6.85407 8.83399 7.81836 9.6712 8.99693 9.6712C10.1755 9.6712 11.1398 8.83399 11.1398 7.81074C11.1398 6.78748 10.1755 5.95027 8.99693 5.95027Z" fill="#8A00FE"/>
</svg>
