<svg width="21" height="20" viewBox="0 0 21 20" fill="none" xmlns="http://www.w3.org/2000/svg">
<g clip-path="url(#clip0)">
<path d="M19.4486 4.76696C19.1871 4.94799 18.9256 5.09885 18.6314 5.24971C18.6641 5.49109 18.6641 5.76263 18.6641 6.03418C18.6641 9.53412 17.0298 12.7022 14.4474 14.9047C12.4208 16.2926 9.90388 17.1073 7.15813 17.1073C4.77195 17.1073 2.5492 16.4736 0.65332 15.3875C1.04557 15.4478 1.43782 15.478 1.86276 15.478C3.75863 15.478 5.49107 14.8745 6.86395 13.8789C5.09882 13.8487 3.5952 12.7625 3.0722 11.2539C3.30101 11.2841 3.56251 11.3143 3.82401 11.3143C4.18357 11.3143 4.51045 11.2841 4.83732 11.1936C4.08551 11.0427 3.43176 10.6806 2.90876 10.1979C2.15695 9.53412 1.69932 8.56862 1.69932 7.54277C1.69932 7.5126 1.69932 7.5126 1.69932 7.48243C2.18963 7.7238 2.71263 7.87466 3.30101 7.93501C2.71263 7.5126 2.22232 6.93934 1.96082 6.27555C1.79738 5.85315 1.69932 5.40057 1.69932 4.94799C1.69932 4.76696 1.69932 4.55576 1.73201 4.37473C1.83007 3.8618 2.0262 3.37905 2.2877 2.98682C2.58188 3.28854 2.90876 3.59026 3.26832 3.89198C3.43176 4.04284 3.62788 4.16352 3.79132 4.31438C4.80463 5.06868 5.9487 5.67212 7.15813 6.12469C7.32157 6.18504 7.45232 6.24538 7.61576 6.27555C8.17145 6.45659 8.72713 6.60744 9.31551 6.69796C9.44626 6.72813 9.57701 6.7583 9.70776 6.7583C9.77313 6.7583 9.80582 6.78848 9.8712 6.78848C10.1327 6.81865 10.3615 6.84882 10.623 6.87899C10.5576 6.60744 10.4923 6.30573 10.4923 5.97384C10.4923 4.70662 11.1787 3.59026 12.2247 2.92648C12.2901 2.86613 12.3554 2.83596 12.4535 2.80579C12.4535 2.80579 12.4862 2.80579 12.4862 2.83596V2.80579C13.1073 2.4739 13.7937 2.2627 14.5782 2.2627C15.7549 2.2627 16.8009 2.71527 17.5528 3.46957C17.8143 3.40923 18.1084 3.34888 18.3699 3.28854C18.6641 3.19802 18.9256 3.13768 19.1871 3.01699C19.514 2.8963 19.8082 2.74545 20.1024 2.59459C19.9389 3.04716 19.6774 3.46957 19.3506 3.83163C19.1218 4.07301 18.8603 4.28421 18.5988 4.49541C18.5334 4.52559 18.468 4.58593 18.4026 4.6161C18.3699 4.6161 18.3699 4.6161 18.3373 4.6161C18.3373 4.6161 18.3373 4.6161 18.3373 4.64627L18.3699 4.6161C18.4353 4.6161 18.5007 4.58593 18.5988 4.58593C18.8929 4.55576 19.1544 4.49541 19.4486 4.43507C19.7428 4.37473 20.037 4.28421 20.2985 4.19369C20.0043 4.37473 19.7101 4.55576 19.4486 4.76696Z" fill="#8A00FE"/>
</g>
<defs>
<clipPath id="clip0">
<rect width="20.92" height="19.31" fill="white"/>
</clipPath>
</defs>
</svg>
