<svg width="64" height="64" viewBox="0 0 64 64" fill="none" xmlns="http://www.w3.org/2000/svg">
<path d="M59.5 15.8C58.7 16.4 57.9 16.9 57 17.4C57.1 18.2 57.1 19.1 57.1 20C57.1 31.6 52.1 42.1 44.2 49.4C38 54 30.3 56.7 21.9 56.7C14.6 56.7 7.8 54.6 2 51C3.2 51.2 4.4 51.3 5.7 51.3C11.5 51.3 16.8 49.3 21 46C15.6 45.9 11 42.3 9.4 37.3C10.1 37.4 10.9 37.5 11.7 37.5C12.8 37.5 13.8 37.4 14.8 37.1C12.5 36.6 10.5 35.4 8.9 33.8C6.6 31.6 5.2 28.4 5.2 25C5.2 24.9 5.2 24.9 5.2 24.8C6.7 25.6 8.3 26.1 10.1 26.3C8.3 24.9 6.8 23 6 20.8C5.5 19.4 5.2 17.9 5.2 16.4C5.2 15.8 5.2 15.1 5.3 14.5C5.6 12.8 6.2 11.2 7 9.9C7.9 10.9 8.9 11.9 10 12.9C10.5 13.4 11.1 13.8 11.6 14.3C14.7 16.8 18.2 18.8 21.9 20.3C22.4 20.5 22.8 20.7 23.3 20.8C25 21.4 26.7 21.9 28.5 22.2C28.9 22.3 29.3 22.4 29.7 22.4C29.9 22.4 30 22.5 30.2 22.5C31 22.6 31.7 22.7 32.5 22.8C32.3 21.9 32.1 20.9 32.1 19.8C32.1 15.6 34.2 11.9 37.4 9.7C37.6 9.5 37.8 9.4 38.1 9.3C38.1 9.3 38.2 9.3 38.2 9.4V9.3C40.1 8.2 42.2 7.5 44.6 7.5C48.2 7.5 51.4 9 53.7 11.5C54.5 11.3 55.4 11.1 56.2 10.9C57.1 10.6 57.9 10.4 58.7 10C59.7 9.6 60.6 9.1 61.5 8.6C61 10.1 60.2 11.5 59.2 12.7C58.5 13.5 57.7 14.2 56.9 14.9C56.7 15 56.5 15.2 56.3 15.3C56.2 15.3 56.2 15.3 56.1 15.3C56.1 15.3 56.1 15.3 56.1 15.4L56.2 15.3C56.4 15.3 56.6 15.2 56.9 15.2C57.8 15.1 58.6 14.9 59.5 14.7C60.4 14.5 61.3 14.2 62.1 13.9C61.2 14.5 60.3 15.1 59.5 15.8Z" fill="#8A00FE"/>
</svg>
