<svg width="16" height="20" viewBox="0 0 16 20" fill="none" xmlns="http://www.w3.org/2000/svg">
<path d="M14.875 4.9375C14.675 5.125 14.475 5.28125 14.25 5.4375C14.275 5.6875 14.275 5.96875 14.275 6.25C14.275 9.875 13.025 13.1563 11.05 15.4375C9.5 16.875 7.575 17.7188 5.475 17.7188C3.65 17.7188 1.95 17.0625 0.5 15.9375C0.8 16 1.1 16.0312 1.425 16.0312C2.875 16.0312 4.2 15.4062 5.25 14.375C3.9 14.3437 2.75 13.2187 2.35 11.6562C2.525 11.6875 2.725 11.7188 2.925 11.7188C3.2 11.7188 3.45 11.6875 3.7 11.5937C3.125 11.4375 2.625 11.0625 2.225 10.5625C1.65 9.875 1.3 8.875 1.3 7.8125C1.3 7.78125 1.3 7.78125 1.3 7.75C1.675 8 2.075 8.15625 2.525 8.21875C2.075 7.78125 1.7 7.1875 1.5 6.5C1.375 6.0625 1.3 5.59375 1.3 5.125C1.3 4.9375 1.3 4.71875 1.325 4.53125C1.4 4 1.55 3.5 1.75 3.09375C1.975 3.40625 2.225 3.71875 2.5 4.03125C2.625 4.1875 2.775 4.3125 2.9 4.46875C3.675 5.25 4.55 5.875 5.475 6.34375C5.6 6.40625 5.7 6.46875 5.825 6.5C6.25 6.6875 6.675 6.84375 7.125 6.9375C7.225 6.96875 7.325 7 7.425 7C7.475 7 7.5 7.03125 7.55 7.03125C7.75 7.0625 7.925 7.09375 8.125 7.125C8.075 6.84375 8.025 6.53125 8.025 6.1875C8.025 4.875 8.55 3.71875 9.35 3.03125C9.4 2.96875 9.45 2.9375 9.525 2.90625C9.525 2.90625 9.55 2.90625 9.55 2.9375V2.90625C10.025 2.5625 10.55 2.34375 11.15 2.34375C12.05 2.34375 12.85 2.8125 13.425 3.59375C13.625 3.53125 13.85 3.46875 14.05 3.40625C14.275 3.3125 14.475 3.25 14.675 3.125C14.925 3 15.15 2.84375 15.375 2.6875C15.25 3.15625 15.05 3.59375 14.8 3.96875C14.625 4.21875 14.425 4.4375 14.225 4.65625C14.175 4.6875 14.125 4.75 14.075 4.78125C14.05 4.78125 14.05 4.78125 14.025 4.78125C14.025 4.78125 14.025 4.78125 14.025 4.8125L14.05 4.78125C14.1 4.78125 14.15 4.75 14.225 4.75C14.45 4.71875 14.65 4.65625 14.875 4.59375C15.1 4.53125 15.325 4.4375 15.525 4.34375C15.3 4.53125 15.075 4.71875 14.875 4.9375Z" fill="#8A00FE"/>
</svg>
