<svg width="16" height="16" viewBox="0 0 16 16" fill="none" xmlns="http://www.w3.org/2000/svg">
<path d="M14 13.125H2C1.31075 13.125 0.75 12.5642 0.75 11.875V3.75C0.75 3.06075 1.31075 2.5 2 2.5H14C14.6892 2.5 15.25 3.06075 15.25 3.75V11.875C15.25 12.5642 14.6892 13.125 14 13.125ZM2 3C1.58637 3 1.25 3.33637 1.25 3.75V11.875C1.25 12.2886 1.58637 12.625 2 12.625H14C14.4136 12.625 14.75 12.2886 14.75 11.875V3.75C14.75 3.33637 14.4136 3 14 3H2Z" fill="#8A00FE"/>
<path d="M8.00001 8.1299C7.84914 8.1299 7.69814 8.08403 7.56801 7.99228L1.00039 4.21665C0.880763 4.14778 0.839513 3.99503 0.908263 3.87528C0.977263 3.75565 1.13001 3.71478 1.24964 3.78315L7.85164 7.58053C7.94051 7.64565 8.05939 7.64565 8.14826 7.58053L8.17176 7.56515L14.7504 3.78315C14.8704 3.71465 15.023 3.75565 15.0918 3.87528C15.1605 3.99503 15.1193 4.1479 14.9996 4.21665L8.43201 7.99228C8.30189 8.08403 8.15089 8.1299 8.00001 8.1299Z" fill="#8A00FE"/>
</svg>
