<svg width="66" height="45" viewBox="0 0 66 45" fill="none" xmlns="http://www.w3.org/2000/svg">
<path d="M62.9451 0.321649H3.17683H2.99293C2.83275 0.300946 2.67037 0.300946 2.51019 0.321649L2.1194 0.474737C1.99434 0.532045 1.87828 0.605652 1.77458 0.693435C1.6438 0.778046 1.52749 0.881315 1.42976 0.999612L1.29183 1.13083C1.28318 1.19618 1.28318 1.26231 1.29183 1.32766C1.21675 1.46027 1.15516 1.59941 1.10793 1.74319C1.01147 1.91731 0.934423 2.10055 0.878054 2.28993C0.878054 2.28993 0.878054 2.50863 0.878054 2.50863V41.8742C0.878054 42.4543 1.12025 43.0105 1.55135 43.4207C1.98246 43.8308 2.56716 44.0612 3.17683 44.0612H62.9451C63.5548 44.0612 64.1395 43.8308 64.5706 43.4207C65.0017 43.0105 65.2439 42.4543 65.2439 41.8742V2.50863C65.2439 1.9286 65.0017 1.37234 64.5706 0.9622C64.1395 0.552062 63.5548 0.321649 62.9451 0.321649ZM33.061 19.5889L10.5329 4.69561H58.5545L33.061 19.5889ZM5.47562 39.6873V6.68576L31.7507 23.9848C31.8839 24.059 32.0221 24.1248 32.1645 24.1816H32.3484C32.5743 24.2805 32.8145 24.3468 33.061 24.3784C33.3879 24.3701 33.7092 24.2956 34.0035 24.1597H34.1644L60.6464 8.6103V39.6873H5.47562Z" fill="#8A00FE"/>
</svg>
