<svg width="15" height="14" viewBox="0 0 15 14" fill="none" xmlns="http://www.w3.org/2000/svg">
<path d="M14.3096 0.55135H0.569483H0.527205C0.490382 0.545383 0.453051 0.545383 0.416227 0.55135L0.326388 0.595472C0.297638 0.611988 0.270958 0.633202 0.247118 0.658502C0.217053 0.682888 0.190316 0.712651 0.167848 0.746745L0.13614 0.784563C0.13415 0.803398 0.13415 0.822456 0.13614 0.841291C0.118878 0.879511 0.104721 0.919613 0.0938623 0.961049C0.0716863 1.01123 0.0539743 1.06405 0.0410156 1.11863C0.0410156 1.11863 0.0410156 1.18166 0.0410156 1.18166V12.5272C0.0410156 12.6943 0.0966932 12.8547 0.1958 12.9729C0.294907 13.0911 0.429324 13.1575 0.569483 13.1575H14.3096C14.4498 13.1575 14.5842 13.0911 14.6833 12.9729C14.7824 12.8547 14.8381 12.6943 14.8381 12.5272V1.18166C14.8381 1.01449 14.7824 0.854168 14.6833 0.735963C14.5842 0.617757 14.4498 0.55135 14.3096 0.55135ZM7.43955 6.10435L2.26058 1.81196H13.3003L7.43955 6.10435ZM1.09795 11.8969V2.38554L7.13833 7.37127C7.16894 7.39268 7.20072 7.41163 7.23345 7.428H7.27573C7.32767 7.4565 7.38289 7.47562 7.43955 7.48472C7.51471 7.48234 7.58858 7.46085 7.65622 7.42169H7.69322L13.7812 2.94021V11.8969H1.09795Z" fill="#8A00FE"/>
</svg>
