<svg width="16" height="20" viewBox="0 0 16 20" fill="none" xmlns="http://www.w3.org/2000/svg">
<path d="M12.4744 3.67797H1.9657H1.93337C1.90521 3.67179 1.87666 3.67179 1.84849 3.67797L1.77978 3.72367C1.75779 3.74078 1.73739 3.76275 1.71915 3.78896C1.69616 3.81421 1.67571 3.84504 1.65853 3.88035L1.63428 3.91952C1.63275 3.93903 1.63275 3.95877 1.63428 3.97828C1.62107 4.01786 1.61025 4.0594 1.60194 4.10231C1.58498 4.15429 1.57143 4.20899 1.56152 4.26552C1.56152 4.26552 1.56152 4.3308 1.56152 4.3308V16.0817C1.56152 16.2549 1.60411 16.4209 1.67991 16.5434C1.7557 16.6658 1.85851 16.7346 1.9657 16.7346H12.4744C12.5816 16.7346 12.6844 16.6658 12.7602 16.5434C12.836 16.4209 12.8786 16.2549 12.8786 16.0817V4.3308C12.8786 4.15766 12.836 3.99161 12.7602 3.86918C12.6844 3.74675 12.5816 3.67797 12.4744 3.67797ZM7.22006 9.4294L3.25908 4.98363H11.7024L7.22006 9.4294ZM2.36989 15.4289V5.57771L6.98968 10.7416C7.01309 10.7638 7.0374 10.7834 7.06243 10.8003H7.09476C7.13449 10.8299 7.17672 10.8497 7.22006 10.8591C7.27754 10.8566 7.33404 10.8344 7.38577 10.7938H7.41407L12.0702 6.1522V15.4289H2.36989Z" fill="#8A00FE"/>
</svg>
