<svg width="64" height="64" viewBox="0 0 64 64" fill="none" xmlns="http://www.w3.org/2000/svg">
<path d="M32 58C29.8783 58 27.8434 57.1571 26.3431 55.6569C24.8429 54.1566 24 52.1217 24 50C24 49.4696 24.2107 48.9609 24.5858 48.5858C24.9609 48.2107 25.4696 48 26 48H38C38.5304 48 39.0391 48.2107 39.4142 48.5858C39.7893 48.9609 40 49.4696 40 50C40 52.1217 39.1571 54.1566 37.6569 55.6569C36.1566 57.1571 34.1217 58 32 58ZM28.54 52C28.8916 52.6062 29.3963 53.1093 30.0035 53.4591C30.6108 53.8088 31.2992 53.9929 32 53.9929C32.7008 53.9929 33.3892 53.8088 33.9965 53.4591C34.6037 53.1093 35.1084 52.6062 35.46 52H28.54Z" fill="#8A00FE"/>
<path d="M36 14H28C27.4696 14 26.9609 13.7893 26.5858 13.4142C26.2107 13.0391 26 12.5304 26 12C26 10.4087 26.6321 8.88258 27.7574 7.75736C28.8826 6.63214 30.4087 6 32 6C33.5913 6 35.1174 6.63214 36.2426 7.75736C37.3679 8.88258 38 10.4087 38 12C38 12.5304 37.7893 13.0391 37.4142 13.4142C37.0391 13.7893 36.5304 14 36 14Z" fill="#8A00FE"/>
<path d="M54 52H10C9.46957 52 8.96086 51.7893 8.58579 51.4142C8.21072 51.0391 8 50.5304 8 50C7.99825 47.7413 8.54302 45.5157 9.58781 43.5132C10.6326 41.5107 12.1464 39.7907 14 38.5V28C13.9999 23.2468 15.8798 18.6865 19.2296 15.3143C22.5793 11.9421 27.1269 10.0317 31.88 10H32.1C36.8739 10 41.4523 11.8964 44.8279 15.2721C48.2036 18.6477 50.1 23.2261 50.1 28V38.5C51.9351 39.8017 53.4295 41.5265 54.4566 43.5284C55.4836 45.5302 56.013 47.7501 56 50V50C56 50.5304 55.7893 51.0391 55.4142 51.4142C55.0391 51.7893 54.5304 52 54 52ZM12.2 48H51.8C51.5167 46.6134 50.9424 45.3028 50.1149 44.1547C49.2875 43.0066 48.2258 42.0473 47 41.34C46.6948 41.1638 46.4416 40.9101 46.266 40.6045C46.0904 40.299 45.9986 39.9524 46 39.6V28C46 24.287 44.525 20.726 41.8995 18.1005C39.274 15.475 35.713 14 32 14C28.287 14 24.726 15.475 22.1005 18.1005C19.475 20.726 18 24.287 18 28V39.6C18.0014 39.9524 17.9097 40.299 17.734 40.6045C17.5584 40.9101 17.3052 41.1638 17 41.34C15.7742 42.0473 14.7125 43.0066 13.8851 44.1547C13.0576 45.3028 12.4833 46.6134 12.2 48V48Z" fill="#8A00FE"/>
</svg>
