<svg width="17" height="17" viewBox="0 0 17 17" fill="none" xmlns="http://www.w3.org/2000/svg">
<path d="M8.4607 16.5001C7.76716 16.5001 7.10203 16.2458 6.61162 15.7931C6.12121 15.3405 5.8457 14.7265 5.8457 14.0863C5.8457 13.9263 5.91458 13.7728 6.03718 13.6597C6.15978 13.5465 6.32607 13.4829 6.49945 13.4829H10.422C10.5953 13.4829 10.7616 13.5465 10.8842 13.6597C11.0068 13.7728 11.0757 13.9263 11.0757 14.0863C11.0757 14.7265 10.8002 15.3405 10.3098 15.7931C9.81938 16.2458 9.15424 16.5001 8.4607 16.5001ZM7.32972 14.6898C7.44465 14.8727 7.60962 15.0245 7.80811 15.13C8.0066 15.2355 8.23164 15.2911 8.4607 15.2911C8.68976 15.2911 8.9148 15.2355 9.11329 15.13C9.31178 15.0245 9.47675 14.8727 9.59169 14.6898H7.32972Z" fill="#8A00FE"/>
<path d="M9.76778 3.2243H7.15277C6.97939 3.2243 6.8131 3.16072 6.6905 3.04755C6.5679 2.93439 6.49902 2.7809 6.49902 2.62086C6.49902 2.14073 6.70565 1.68027 7.07346 1.34078C7.44127 1.00128 7.94012 0.810547 8.46027 0.810547C8.98043 0.810547 9.47928 1.00128 9.84709 1.34078C10.2149 1.68027 10.4215 2.14073 10.4215 2.62086C10.4215 2.7809 10.3526 2.93439 10.23 3.04755C10.1074 3.16072 9.94116 3.2243 9.76778 3.2243Z" fill="#8A00FE"/>
<path d="M15.6515 14.6898H1.26899C1.0956 14.6898 0.929317 14.6262 0.806715 14.513C0.684113 14.3999 0.615236 14.2464 0.615236 14.0863C0.614662 13.4048 0.792733 12.7333 1.13425 12.1291C1.47577 11.5249 1.97059 11.006 2.57649 10.6166V7.44852C2.57645 6.01439 3.19096 4.63847 4.2859 3.62101C5.38085 2.60354 6.86735 2.02714 8.42101 2.01758H8.49292C10.0534 2.01758 11.5499 2.58976 12.6534 3.60826C13.7568 4.62676 14.3767 6.00814 14.3767 7.44852V10.6166C14.9765 11.0093 15.465 11.5297 15.8007 12.1337C16.1364 12.7377 16.3095 13.4075 16.3052 14.0863V14.0863C16.3052 14.2464 16.2364 14.3999 16.1138 14.513C15.9912 14.6262 15.8249 14.6898 15.6515 14.6898ZM1.98811 13.4829H14.9324C14.8398 13.0645 14.652 12.6691 14.3816 12.3227C14.1111 11.9763 13.764 11.6868 13.3634 11.4734C13.2636 11.4203 13.1808 11.3437 13.1234 11.2515C13.066 11.1593 13.036 11.0548 13.0365 10.9485V7.44852C13.0365 6.32822 12.5543 5.25382 11.6961 4.46165C10.8379 3.66949 9.67393 3.22445 8.46023 3.22445C7.24654 3.22445 6.08255 3.66949 5.22434 4.46165C4.36612 5.25382 3.88399 6.32822 3.88399 7.44852V10.9485C3.88444 11.0548 3.85445 11.1593 3.79705 11.2515C3.73965 11.3437 3.65688 11.4203 3.55711 11.4734C3.15643 11.6868 2.80939 11.9763 2.53891 12.3227C2.26844 12.6691 2.0807 13.0645 1.98811 13.4829V13.4829Z" fill="#8A00FE"/>
</svg>
