<svg width="16" height="20" viewBox="0 0 16 20" fill="none" xmlns="http://www.w3.org/2000/svg">
<path d="M8 18.125C7.46957 18.125 6.96086 17.8616 6.58579 17.3928C6.21071 16.9239 6 16.288 6 15.625C6 15.4592 6.05268 15.3003 6.14645 15.1831C6.24021 15.0658 6.36739 15 6.5 15H9.5C9.63261 15 9.75979 15.0658 9.85355 15.1831C9.94732 15.3003 10 15.4592 10 15.625C10 16.288 9.78929 16.9239 9.41421 17.3928C9.03914 17.8616 8.53043 18.125 8 18.125ZM7.135 16.25C7.22291 16.4394 7.34908 16.5967 7.50089 16.706C7.6527 16.8153 7.82481 16.8728 8 16.8728C8.17519 16.8728 8.3473 16.8153 8.49911 16.706C8.65092 16.5967 8.77709 16.4394 8.865 16.25H7.135Z" fill="#8A00FE"/>
<path d="M9 4.375H7C6.86739 4.375 6.74022 4.30915 6.64645 4.19194C6.55268 4.07473 6.5 3.91576 6.5 3.75C6.5 3.25272 6.65804 2.77581 6.93934 2.42417C7.22064 2.07254 7.60218 1.875 8 1.875C8.39783 1.875 8.77936 2.07254 9.06066 2.42417C9.34197 2.77581 9.5 3.25272 9.5 3.75C9.5 3.91576 9.44732 4.07473 9.35356 4.19194C9.25979 4.30915 9.13261 4.375 9 4.375Z" fill="#8A00FE"/>
<path d="M13.5 16.25H2.5C2.36739 16.25 2.24022 16.1842 2.14645 16.0669C2.05268 15.9497 2 15.7908 2 15.625C1.99956 14.9192 2.13575 14.2237 2.39695 13.5979C2.65815 12.9721 3.0366 12.4346 3.5 12.0312V8.75C3.49997 7.26463 3.96996 5.83954 4.8074 4.78572C5.64483 3.7319 6.78173 3.1349 7.97 3.125H8.025C9.21847 3.125 10.3631 3.71763 11.207 4.77252C12.0509 5.82742 12.525 7.25816 12.525 8.75V12.0312C12.9838 12.438 13.3574 12.977 13.6141 13.6026C13.8709 14.2282 14.0033 14.9219 14 15.625V15.625C14 15.7908 13.9473 15.9497 13.8536 16.0669C13.7598 16.1842 13.6326 16.25 13.5 16.25ZM3.05 15H12.95C12.8792 14.5667 12.7356 14.1571 12.5287 13.7984C12.3219 13.4396 12.0564 13.1398 11.75 12.9188C11.6737 12.8637 11.6104 12.7844 11.5665 12.6889C11.5226 12.5934 11.4997 12.4851 11.5 12.375V8.75C11.5 7.58968 11.1313 6.47688 10.4749 5.65641C9.8185 4.83594 8.92826 4.375 8 4.375C7.07174 4.375 6.1815 4.83594 5.52513 5.65641C4.86875 6.47688 4.5 7.58968 4.5 8.75V12.375C4.50035 12.4851 4.47741 12.5934 4.43351 12.6889C4.38961 12.7844 4.3263 12.8637 4.25 12.9188C3.94355 13.1398 3.67813 13.4396 3.47127 13.7984C3.2644 14.1571 3.12082 14.5667 3.05 15V15Z" fill="#8A00FE"/>
</svg>
