<svg width="16" height="16" viewBox="0 0 16 16" fill="none" xmlns="http://www.w3.org/2000/svg">
<path d="M12.4795 10.1068C12.3375 10.0135 12.1509 10.05 12.0575 10.188L11.6761 10.7479V6.16273C11.6761 4.94137 10.6779 3.94727 9.45656 3.94727H6.21446C6.04406 3.94727 5.91016 4.0852 5.91016 4.25157C5.91016 4.422 6.04406 4.5559 6.21446 4.5559H9.45656C10.3452 4.5559 11.0675 5.27817 11.0675 6.16273V10.756L10.686 10.188C10.5887 10.05 10.402 10.0135 10.26 10.1068C10.122 10.2042 10.0855 10.3909 10.1788 10.5329L11.1162 11.9165C11.173 11.9977 11.2703 12.0504 11.3677 12.0504C11.4692 12.0504 11.5666 11.9977 11.6234 11.9165L12.5607 10.5329C12.654 10.3909 12.6175 10.2042 12.4795 10.1068Z" fill="#8A00FE"/>
<path d="M9.78856 11.4424H6.55053C5.65786 11.4424 4.93556 10.7201 4.93556 9.83558V5.23825L5.32106 5.81038C5.41436 5.94831 5.60103 5.98485 5.74306 5.89151C5.881 5.79415 5.91753 5.60748 5.8242 5.46545L4.88686 4.08178C4.77326 3.91545 4.49326 3.91545 4.38373 4.08178L3.44236 5.46545C3.349 5.60748 3.38553 5.79415 3.5235 5.89151C3.57623 5.92398 3.63713 5.94428 3.69393 5.94428C3.79536 5.94428 3.8887 5.89558 3.94956 5.81038L4.32693 5.25041V9.83558C4.32693 11.0569 5.3251 12.0511 6.55053 12.0511H9.78856C9.95896 12.0511 10.0929 11.9131 10.0929 11.7468C10.0929 11.5763 9.95896 11.4424 9.78856 11.4424Z" fill="#8A00FE"/>
</svg>
