<svg width="64" height="64" viewBox="0 0 64 64" fill="none" xmlns="http://www.w3.org/2000/svg">
<path d="M43.0625 37.25C44.9375 34.3 46.0375 30.8 46.0375 27.0375C46.0375 16.525 37.525 8 27.025 8C16.5125 8 8 16.525 8 27.0375C8 37.55 16.5125 46.075 27.0125 46.075C30.825 46.075 34.375 44.95 37.35 43.025L38.2125 42.425L51.7875 56L56 51.7125L42.4375 38.1375L43.0625 37.25ZM37.675 16.4C40.5125 19.2375 42.075 23.0125 42.075 27.025C42.075 31.0375 40.5125 34.8125 37.675 37.65C34.8375 40.4875 31.0625 42.05 27.05 42.05C23.0375 42.05 19.2625 40.4875 16.425 37.65C13.5875 34.8125 12.025 31.0375 12.025 27.025C12.025 23.0125 13.5875 19.2375 16.425 16.4C19.2625 13.5625 23.0375 12 27.05 12C31.0625 12 34.8375 13.5625 37.675 16.4Z" fill="#8A00FE"/>
</svg>
