<svg width="16" height="20" viewBox="0 0 16 20" fill="none" xmlns="http://www.w3.org/2000/svg">
<path d="M10.7656 11.6406C11.2344 10.7187 11.5094 9.625 11.5094 8.44922C11.5094 5.16406 9.38125 2.5 6.75625 2.5C4.12812 2.5 2 5.16406 2 8.44922C2 11.7344 4.12813 14.3984 6.75313 14.3984C7.70625 14.3984 8.59375 14.0469 9.3375 13.4453L9.55313 13.2578L12.9469 17.5L14 16.1602L10.6094 11.918L10.7656 11.6406ZM9.41875 5.125C10.1281 6.01172 10.5188 7.19141 10.5188 8.44531C10.5188 9.69922 10.1281 10.8789 9.41875 11.7656C8.70937 12.6523 7.76562 13.1406 6.7625 13.1406C5.75937 13.1406 4.81562 12.6523 4.10625 11.7656C3.39687 10.8789 3.00625 9.69922 3.00625 8.44531C3.00625 7.19141 3.39687 6.01172 4.10625 5.125C4.81562 4.23828 5.75937 3.75 6.7625 3.75C7.76562 3.75 8.70937 4.23828 9.41875 5.125Z" fill="#8A00FE"/>
</svg>
