<svg width="17" height="15" viewBox="0 0 17 15" fill="none" xmlns="http://www.w3.org/2000/svg">
<path d="M12.0763 9.23885C12.6892 8.34878 13.0487 7.29276 13.0487 6.15754C13.0487 2.98573 10.2662 0.413574 6.83403 0.413574C3.39776 0.413574 0.615234 2.98573 0.615234 6.15754C0.615234 9.32936 3.39776 11.9015 6.82995 11.9015C8.07616 11.9015 9.23656 11.5621 10.209 10.9813L10.4909 10.8002L14.9283 14.8961L16.3052 13.6025L11.872 9.50662L12.0763 9.23885ZM10.3152 2.94801C11.2428 3.80414 11.7535 4.94313 11.7535 6.15377C11.7535 7.36442 11.2428 8.50341 10.3152 9.35954C9.38774 10.2157 8.15379 10.6871 6.8422 10.6871C5.53062 10.6871 4.29666 10.2157 3.36916 9.35954C2.44165 8.50341 1.93091 7.36442 1.93091 6.15377C1.93091 4.94313 2.44165 3.80414 3.36916 2.94801C4.29666 2.09188 5.53062 1.62045 6.8422 1.62045C8.15379 1.62045 9.38774 2.09188 10.3152 2.94801Z" fill="#8A00FE"/>
</svg>
