<svg width="18" height="18" viewBox="0 0 18 18" fill="none" xmlns="http://www.w3.org/2000/svg">
<path d="M8.99986 18C4.04797 18 0 13.952 0 9C0 4.04803 4.04797 0 8.99986 0C13.9517 0 17.9997 4.04803 17.9997 9C18.039 13.952 13.991 18 8.99986 18ZM8.99986 0.943229C4.55888 0.943229 0.982518 4.55895 0.982518 8.9607C0.982518 13.3624 4.59818 16.9782 8.99986 16.9782C13.4015 16.9782 17.0172 13.3624 17.0172 8.9607C17.0172 4.55895 13.4408 0.943229 8.99986 0.943229Z" fill="#8A00FE"/>
<path d="M11.8308 13.6003L8.49023 10.2597V4.16797H9.55135V9.82736L12.5775 12.8536L11.8308 13.6003Z" fill="#8A00FE"/>
</svg>
